<svg xmlns="http://www.w3.org/2000/svg" width="1400" height="760" viewBox="0 0 1400 760" fill="none">
  <rect width="1400" height="760" rx="24" fill="#12161C"/>
  <rect x="60" y="70" width="1280" height="620" rx="18" fill="#171C24" stroke="#2C3440"/>
  <text x="96" y="130" fill="#E9D8B4" font-family="Manrope, Arial, sans-serif" font-size="34" font-weight="700">AI Governance Döngüsü</text>
  <text x="96" y="164" fill="#A7B0BF" font-family="Manrope, Arial, sans-serif" font-size="20">Risk sınıflandırma, izleme, iyileştirme, sorumluluk zinciri</text>

  <circle cx="700" cy="390" r="170" fill="#222C38" stroke="#4A5A72" stroke-width="2"/>
  <circle cx="700" cy="390" r="92" fill="#1B2430" stroke="#3A4556" stroke-width="2"/>
  <text x="650" y="398" fill="#F4F7FB" font-family="Manrope, Arial, sans-serif" font-size="20" font-weight="700">Model</text>

  <rect x="220" y="210" width="220" height="90" rx="12" fill="#202734" stroke="#3A4556"/>
  <text x="246" y="264" fill="#F4F7FB" font-family="Manrope, Arial, sans-serif" font-size="20" font-weight="600">Risk Sınıflandırma</text>

  <rect x="960" y="210" width="220" height="90" rx="12" fill="#202734" stroke="#3A4556"/>
  <text x="995" y="264" fill="#F4F7FB" font-family="Manrope, Arial, sans-serif" font-size="20" font-weight="600">Monitoring</text>

  <rect x="220" y="490" width="220" height="90" rx="12" fill="#202734" stroke="#3A4556"/>
  <text x="270" y="544" fill="#F4F7FB" font-family="Manrope, Arial, sans-serif" font-size="20" font-weight="600">Explainability</text>

  <rect x="960" y="490" width="220" height="90" rx="12" fill="#202734" stroke="#3A4556"/>
  <text x="1010" y="544" fill="#F4F7FB" font-family="Manrope, Arial, sans-serif" font-size="20" font-weight="600">Sorumluluk</text>

  <path d="M440 255H520" stroke="#E9D8B4" stroke-width="3"/>
  <path d="M880 255H960" stroke="#E9D8B4" stroke-width="3"/>
  <path d="M440 535H520" stroke="#E9D8B4" stroke-width="3"/>
  <path d="M880 535H960" stroke="#E9D8B4" stroke-width="3"/>

  <path d="M520 255C610 200 790 200 880 255" stroke="#E9D8B4" stroke-width="2" stroke-dasharray="8 8"/>
  <path d="M880 535C790 590 610 590 520 535" stroke="#E9D8B4" stroke-width="2" stroke-dasharray="8 8"/>

  <rect x="120" y="640" width="1160" height="32" rx="10" fill="#141A22" stroke="#2C3440"/>
  <text x="152" y="662" fill="#A7B0BF" font-family="Manrope, Arial, sans-serif" font-size="16">Drift, bias ve hallucination ölçümü olmayan sistemlerde kurumsal güven sürdürülemez.</text>
</svg>
