<svg xmlns="http://www.w3.org/2000/svg" width="1200" height="630" viewBox="0 0 1200 630">
  <rect width="1200" height="630" rx="20" fill="#1b2430"/>
  <rect x="32" y="32" width="1136" height="566" rx="16" fill="#232f3e" stroke="#4f6580"/>
  <text x="76" y="116" fill="#f3f7fb" font-size="44" font-family="Arial" font-weight="700">AI-First Karar Mimarisi</text>
  <text x="76" y="158" fill="#bdd0e4" font-size="24" font-family="Arial">Dijital Liderlik Akademisi 2026</text>

  <rect x="90" y="230" width="250" height="120" rx="12" fill="#32465f"/>
  <text x="128" y="298" fill="#ffffff" font-size="24" font-family="Arial" font-weight="700">Veri Girisi</text>

  <rect x="410" y="230" width="250" height="120" rx="12" fill="#3a5372"/>
  <text x="448" y="298" fill="#ffffff" font-size="24" font-family="Arial" font-weight="700">Model Ciktisi</text>

  <rect x="730" y="188" width="250" height="74" rx="12" fill="#425f83"/>
  <text x="770" y="234" fill="#ffffff" font-size="21" font-family="Arial" font-weight="700">Karar Destek</text>
  <rect x="730" y="276" width="250" height="74" rx="12" fill="#425f83"/>
  <text x="776" y="322" fill="#ffffff" font-size="21" font-family="Arial" font-weight="700">Yari Otonom</text>
  <rect x="730" y="364" width="250" height="74" rx="12" fill="#425f83"/>
  <text x="790" y="410" fill="#ffffff" font-size="21" font-family="Arial" font-weight="700">Tam Otonom</text>

  <path d="M340 290H400" stroke="#ffd28a" stroke-width="4"/>
  <path d="M660 290H720" stroke="#ffd28a" stroke-width="4"/>

  <rect x="90" y="480" width="1040" height="86" rx="12" fill="#28384d"/>
  <text x="124" y="532" fill="#e8f0f8" font-size="24" font-family="Arial" font-weight="700">Human-in-the-loop + Risk Esigi + Rollback</text>
</svg>
