<svg width="1200" height="630" viewBox="0 0 1200 630" fill="none" xmlns="http://www.w3.org/2000/svg">
  <defs>
    <linearGradient id="bg" x1="0" y1="0" x2="1200" y2="630" gradientUnits="userSpaceOnUse">
      <stop stop-color="#1A2029"/>
      <stop offset="1" stop-color="#0E1318"/>
    </linearGradient>
  </defs>
  <rect width="1200" height="630" fill="url(#bg)"/>
  <rect x="120" y="110" width="960" height="410" rx="24" fill="#141922" stroke="#2A313E" stroke-width="2"/>

  <path d="M190 400C270 320 370 360 450 282C540 195 638 238 720 180" stroke="#D6B273" stroke-width="6" stroke-linecap="round"/>
  <path d="M450 282C525 340 600 342 680 286" stroke="#72809A" stroke-width="5" stroke-linecap="round"/>
  <path d="M680 286C760 242 840 268 930 214" stroke="#D6B273" stroke-width="6" stroke-linecap="round"/>

  <circle cx="190" cy="400" r="10" fill="#D6B273"/>
  <circle cx="450" cy="282" r="10" fill="#D6B273"/>
  <circle cx="680" cy="286" r="10" fill="#D6B273"/>
  <circle cx="930" cy="214" r="10" fill="#D6B273"/>

  <rect x="170" y="150" width="170" height="34" rx="10" fill="#202735" stroke="#344055"/>
  <text x="190" y="173" fill="#D1C8B9" font-family="Manrope, Arial, sans-serif" font-size="16">origin/main</text>
  <rect x="360" y="150" width="190" height="34" rx="10" fill="#202735" stroke="#344055"/>
  <text x="382" y="173" fill="#D1C8B9" font-family="Manrope, Arial, sans-serif" font-size="16">feature/branch</text>
  <rect x="570" y="150" width="190" height="34" rx="10" fill="#202735" stroke="#344055"/>
  <text x="592" y="173" fill="#D1C8B9" font-family="Manrope, Arial, sans-serif" font-size="16">upstream/main</text>

  <text x="170" y="455" fill="#F4F1EA" font-family="Manrope, Arial, sans-serif" font-size="54" font-weight="700">Git Upstream</text>
  <text x="170" y="496" fill="#C7BEAF" font-family="Manrope, Arial, sans-serif" font-size="26">Branch ve merge akışı</text>
</svg>
