<svg xmlns="http://www.w3.org/2000/svg" width="1200" height="630" viewBox="0 0 1200 630">
  <rect width="1200" height="630" rx="20" fill="#1d2733"/>
  <rect x="32" y="32" width="1136" height="566" rx="16" fill="#253240" stroke="#516a85"/>
  <text x="76" y="112" fill="#f4f8fc" font-size="42" font-family="Arial" font-weight="700">Git Upstream Nedir?</text>
  <text x="76" y="152" fill="#b8cbe0" font-size="23" font-family="Arial">Branch ve merge akisi</text>
  <rect x="90" y="220" width="1010" height="260" rx="16" fill="#2b3d52"/>
  <circle cx="220" cy="288" r="16" fill="#8cb0d5"/>
  <circle cx="380" cy="288" r="16" fill="#8cb0d5"/>
  <circle cx="540" cy="255" r="16" fill="#8cb0d5"/>
  <circle cx="700" cy="255" r="16" fill="#8cb0d5"/>
  <circle cx="540" cy="322" r="16" fill="#8cb0d5"/>
  <circle cx="700" cy="322" r="16" fill="#8cb0d5"/>
  <circle cx="860" cy="288" r="16" fill="#f1c98b"/>
  <path d="M236 288H364" stroke="#9ab5d1" stroke-width="4"/>
  <path d="M396 288H524V255H684" stroke="#9ab5d1" stroke-width="4" fill="none"/>
  <path d="M396 288H524V322H684" stroke="#9ab5d1" stroke-width="4" fill="none"/>
  <path d="M716 255V288H844" stroke="#9ab5d1" stroke-width="4" fill="none"/>
  <path d="M716 322V288H844" stroke="#9ab5d1" stroke-width="4" fill="none"/>
  <rect x="90" y="500" width="1010" height="64" rx="12" fill="#2f4257"/>
  <text x="120" y="540" fill="#eaf2fb" font-size="24" font-family="Arial" font-weight="700">Nebi Seker | Business Analyst &amp; Data Scientist</text>
</svg>

