<svg width="1200" height="630" viewBox="0 0 1200 630" fill="none" xmlns="http://www.w3.org/2000/svg">
  <defs>
    <linearGradient id="bg" x1="0" y1="0" x2="1200" y2="630" gradientUnits="userSpaceOnUse">
      <stop stop-color="#1B212B"/>
      <stop offset="1" stop-color="#10151C"/>
    </linearGradient>
  </defs>
  <rect width="1200" height="630" fill="url(#bg)"/>
  <circle cx="980" cy="92" r="170" fill="#D6B273" fill-opacity="0.1"/>

  <rect x="210" y="80" width="300" height="470" rx="30" fill="#0F141B" stroke="#2A323F" stroke-width="2"/>
  <rect x="250" y="130" width="220" height="34" rx="9" fill="#D6B273" fill-opacity="0.28"/>
  <rect x="250" y="188" width="220" height="18" rx="6" fill="#2D3542"/>
  <rect x="250" y="220" width="190" height="18" rx="6" fill="#2D3542"/>
  <rect x="250" y="252" width="210" height="18" rx="6" fill="#2D3542"/>
  <rect x="250" y="300" width="130" height="36" rx="10" fill="#D6B273" fill-opacity="0.24" stroke="#7E6439"/>

  <rect x="650" y="140" width="330" height="330" rx="18" fill="#161C24" stroke="#2A3240" stroke-width="2"/>
  <rect x="690" y="190" width="250" height="22" rx="7" fill="#D6B273" fill-opacity="0.3"/>
  <rect x="690" y="230" width="250" height="16" rx="6" fill="#2C3441"/>
  <rect x="690" y="260" width="250" height="16" rx="6" fill="#2C3441"/>
  <rect x="690" y="290" width="250" height="16" rx="6" fill="#2C3441"/>
  <rect x="690" y="320" width="210" height="16" rx="6" fill="#2C3441"/>

  <text x="160" y="588" fill="#F4F1EA" font-family="Manrope, Arial, sans-serif" font-size="50" font-weight="700">Mobile Navbar UX</text>
</svg>
