<svg width="1200" height="700" viewBox="0 0 1200 700" fill="none" xmlns="http://www.w3.org/2000/svg">
  <defs>
    <linearGradient id="bg" x1="0" y1="0" x2="1200" y2="700">
      <stop stop-color="#1A212B"/>
      <stop offset="1" stop-color="#0F141B"/>
    </linearGradient>
  </defs>
  <rect width="1200" height="700" fill="url(#bg)"/>
  <rect x="90" y="80" width="1020" height="540" rx="20" fill="#141A22" stroke="#2A3240" stroke-width="2"/>
  <rect x="130" y="120" width="300" height="110" rx="12" fill="#1F2733"/>
  <rect x="450" y="120" width="300" height="110" rx="12" fill="#1F2733"/>
  <rect x="770" y="120" width="300" height="110" rx="12" fill="#1F2733"/>
  <rect x="130" y="260" width="450" height="300" rx="14" fill="#1A2230"/>
  <rect x="610" y="260" width="460" height="300" rx="14" fill="#1A2230"/>
  <path d="M640 500V470H690V500H640Z" fill="#D6B273" fill-opacity="0.45"/>
  <path d="M720 500V440H770V500H720Z" fill="#D6B273" fill-opacity="0.65"/>
  <path d="M800 500V410H850V500H800Z" fill="#D6B273" fill-opacity="0.85"/>
  <path d="M880 500V370H930V500H880Z" fill="#D6B273"/>
  <text x="130" y="585" fill="#F4F1EA" font-family="Manrope, Arial, sans-serif" font-size="40" font-weight="700">Power BI Havayolu Satış</text>
</svg>
