<svg xmlns="http://www.w3.org/2000/svg" width="1200" height="630" viewBox="0 0 1200 630">
  <rect width="1200" height="630" rx="20" fill="#1d2733"/>
  <rect x="32" y="32" width="1136" height="566" rx="16" fill="#253240" stroke="#516a85"/>
  <text x="76" y="112" fill="#f4f8fc" font-size="42" font-family="Arial" font-weight="700">Power BI Havayolu Satis</text>
  <text x="76" y="152" fill="#b8cbe0" font-size="23" font-family="Arial">KPI dashboard ve trend analizi</text>
  <rect x="90" y="220" width="1010" height="260" rx="16" fill="#2b3d52"/>
  <rect x="120" y="250" width="300" height="86" rx="12" fill="#3a5372"/>
  <rect x="440" y="250" width="300" height="86" rx="12" fill="#3f5a78"/>
  <rect x="760" y="250" width="310" height="86" rx="12" fill="#4a6a8d"/>
  <rect x="120" y="352" width="620" height="100" rx="12" fill="#243548"/>
  <rect x="760" y="352" width="310" height="100" rx="12" fill="#31465f"/>
  <path d="M150 423L220 390L290 402L360 370L430 380L500 346L570 356L640 330" stroke="#f1c98b" stroke-width="4" fill="none"/>
  <rect x="90" y="500" width="1010" height="64" rx="12" fill="#2f4257"/>
  <text x="120" y="540" fill="#eaf2fb" font-size="24" font-family="Arial" font-weight="700">Nebi Seker | Business Analyst & Data Scientist</text>
</svg>
